<mxfile host="app.diagrams.net" modified="2023-10-23T09:59:50.940Z" agent="Mozilla/5.0 (Macintosh; Intel Mac OS X 10_15_7) AppleWebKit/537.36 (KHTML, like Gecko) Chrome/118.0.0.0 Safari/537.36" etag="19aU3ZOe1KXgFJ2Uw9uy" version="21.6.9" type="github">
  <diagram name="Page-1" id="13e1069c-82ec-6db2-03f1-153e76fe0fe0">
    <mxGraphModel dx="2427" dy="713" grid="1" gridSize="10" guides="1" tooltips="1" connect="1" arrows="1" fold="1" page="1" pageScale="1" pageWidth="1100" pageHeight="850" background="none" math="0" shadow="0">
      <root>
        <mxCell id="0" />
        <mxCell id="1" parent="0" />
        <mxCell id="-RjXNWNZFDge65mw0WvV-12" value="Sentry Client" style="shape=umlLifeline;perimeter=lifelinePerimeter;whiteSpace=wrap;html=1;container=1;collapsible=0;recursiveResize=0;outlineConnect=0;rounded=1;shadow=0;comic=0;labelBackgroundColor=none;strokeWidth=1;fontFamily=Verdana;fontSize=12;align=center;" parent="1" vertex="1">
          <mxGeometry x="-983" y="160" width="100" height="585" as="geometry" />
        </mxCell>
        <mxCell id="-RjXNWNZFDge65mw0WvV-13" value="" style="html=1;points=[];perimeter=orthogonalPerimeter;rounded=0;shadow=0;comic=0;labelBackgroundColor=none;strokeWidth=1;fontFamily=Verdana;fontSize=12;align=center;" parent="-RjXNWNZFDge65mw0WvV-12" vertex="1">
          <mxGeometry x="45" y="98" width="10" height="92" as="geometry" />
        </mxCell>
        <mxCell id="VhnIH6Gxjaamr10zynHm-16" value="" style="html=1;points=[];perimeter=orthogonalPerimeter;outlineConnect=0;targetShapes=umlLifeline;portConstraint=eastwest;newEdgeStyle={&quot;edgeStyle&quot;:&quot;elbowEdgeStyle&quot;,&quot;elbow&quot;:&quot;vertical&quot;,&quot;curved&quot;:0,&quot;rounded&quot;:0};" parent="-RjXNWNZFDge65mw0WvV-12" vertex="1">
          <mxGeometry x="45" y="343" width="10" height="80" as="geometry" />
        </mxCell>
        <mxCell id="S3K-PdM1TAi_zhmvy3br-1" value="" style="html=1;points=[];perimeter=orthogonalPerimeter;rounded=0;shadow=0;comic=0;labelBackgroundColor=none;strokeWidth=1;fontFamily=Verdana;fontSize=12;align=center;" parent="-RjXNWNZFDge65mw0WvV-12" vertex="1">
          <mxGeometry x="45" y="244" width="10" height="40" as="geometry" />
        </mxCell>
        <mxCell id="-RjXNWNZFDge65mw0WvV-17" value="接入Sentry的&lt;br&gt;业务系统" style="shape=note;whiteSpace=wrap;html=1;size=14;verticalAlign=top;align=center;spacingTop=-6;rounded=0;shadow=0;comic=0;labelBackgroundColor=none;strokeWidth=1;fontFamily=Verdana;fontSize=12" parent="1" vertex="1">
          <mxGeometry x="-983" y="100" width="110" height="35" as="geometry" />
        </mxCell>
        <mxCell id="-RjXNWNZFDge65mw0WvV-18" value="Sentry&lt;br&gt;规则" style="shape=umlLifeline;perimeter=lifelinePerimeter;whiteSpace=wrap;html=1;container=1;collapsible=0;recursiveResize=0;outlineConnect=0;rounded=1;shadow=0;comic=0;labelBackgroundColor=none;strokeWidth=1;fontFamily=Verdana;fontSize=12;align=center;" parent="1" vertex="1">
          <mxGeometry x="-430" y="160" width="100" height="580" as="geometry" />
        </mxCell>
        <mxCell id="-RjXNWNZFDge65mw0WvV-19" value="" style="html=1;points=[];perimeter=orthogonalPerimeter;rounded=0;shadow=0;comic=0;labelBackgroundColor=none;strokeWidth=1;fontFamily=Verdana;fontSize=12;align=center;" parent="-RjXNWNZFDge65mw0WvV-18" vertex="1">
          <mxGeometry x="45" y="186" width="10" height="72" as="geometry" />
        </mxCell>
        <mxCell id="-RjXNWNZFDge65mw0WvV-20" value="Sentry&lt;br style=&quot;border-color: var(--border-color);&quot;&gt;配置存储桶" style="shape=note;whiteSpace=wrap;html=1;size=14;verticalAlign=top;align=center;spacingTop=-6;rounded=0;shadow=0;comic=0;labelBackgroundColor=none;strokeWidth=1;fontFamily=Verdana;fontSize=12" parent="1" vertex="1">
          <mxGeometry x="-430" y="100" width="100" height="35" as="geometry" />
        </mxCell>
        <mxCell id="-RjXNWNZFDge65mw0WvV-21" value="Sentry SDK" style="shape=umlLifeline;perimeter=lifelinePerimeter;whiteSpace=wrap;html=1;container=1;collapsible=0;recursiveResize=0;outlineConnect=0;rounded=1;shadow=0;comic=0;labelBackgroundColor=none;strokeWidth=1;fontFamily=Verdana;fontSize=12;align=center;" parent="1" vertex="1">
          <mxGeometry x="-773" y="160" width="100" height="580" as="geometry" />
        </mxCell>
        <mxCell id="-RjXNWNZFDge65mw0WvV-22" value="" style="html=1;points=[];perimeter=orthogonalPerimeter;rounded=0;shadow=0;comic=0;labelBackgroundColor=none;strokeWidth=1;fontFamily=Verdana;fontSize=12;align=center;" parent="-RjXNWNZFDge65mw0WvV-21" vertex="1">
          <mxGeometry x="45" y="99" width="10" height="39" as="geometry" />
        </mxCell>
        <mxCell id="VhnIH6Gxjaamr10zynHm-11" value="" style="html=1;points=[];perimeter=orthogonalPerimeter;outlineConnect=0;targetShapes=umlLifeline;portConstraint=eastwest;newEdgeStyle={&quot;edgeStyle&quot;:&quot;elbowEdgeStyle&quot;,&quot;elbow&quot;:&quot;vertical&quot;,&quot;curved&quot;:0,&quot;rounded&quot;:0};" parent="-RjXNWNZFDge65mw0WvV-21" vertex="1">
          <mxGeometry x="45" y="154" width="10" height="130" as="geometry" />
        </mxCell>
        <mxCell id="VhnIH6Gxjaamr10zynHm-12" value="&amp;nbsp; &amp;nbsp; &amp;nbsp; &amp;nbsp; &amp;nbsp; &amp;nbsp; 初始化&lt;br&gt;（localStorage || file）" style="html=1;align=left;spacingLeft=2;endArrow=block;rounded=0;edgeStyle=orthogonalEdgeStyle;curved=0;rounded=0;" parent="-RjXNWNZFDge65mw0WvV-21" edge="1">
          <mxGeometry relative="1" as="geometry">
            <mxPoint x="55" y="113" as="sourcePoint" />
            <Array as="points">
              <mxPoint x="85" y="113" />
              <mxPoint x="85" y="161" />
            </Array>
            <mxPoint x="55" y="161" as="targetPoint" />
          </mxGeometry>
        </mxCell>
        <mxCell id="VhnIH6Gxjaamr10zynHm-24" value="" style="html=1;points=[];perimeter=orthogonalPerimeter;outlineConnect=0;targetShapes=umlLifeline;portConstraint=eastwest;newEdgeStyle={&quot;edgeStyle&quot;:&quot;elbowEdgeStyle&quot;,&quot;elbow&quot;:&quot;vertical&quot;,&quot;curved&quot;:0,&quot;rounded&quot;:0};" parent="-RjXNWNZFDge65mw0WvV-21" vertex="1">
          <mxGeometry x="50" y="354" width="10" height="105" as="geometry" />
        </mxCell>
        <mxCell id="VhnIH6Gxjaamr10zynHm-25" value="（监听addGlobalEventProcessor）&lt;br style=&quot;border-color: var(--border-color);&quot;&gt;&amp;nbsp; &amp;nbsp;加入配置中的错误类别（from runtime）" style="html=1;align=left;spacingLeft=2;endArrow=block;rounded=0;edgeStyle=orthogonalEdgeStyle;curved=0;rounded=0;" parent="-RjXNWNZFDge65mw0WvV-21" edge="1">
          <mxGeometry x="-0.0065" relative="1" as="geometry">
            <mxPoint x="62" y="363" as="sourcePoint" />
            <Array as="points">
              <mxPoint x="92" y="393" />
            </Array>
            <mxPoint x="67" y="393" as="targetPoint" />
            <mxPoint as="offset" />
          </mxGeometry>
        </mxCell>
        <mxCell id="S3K-PdM1TAi_zhmvy3br-3" value="&amp;nbsp; 存储配置&lt;br&gt;（runtime）" style="html=1;align=left;spacingLeft=2;endArrow=block;rounded=0;edgeStyle=orthogonalEdgeStyle;curved=0;rounded=0;" parent="-RjXNWNZFDge65mw0WvV-21" edge="1">
          <mxGeometry relative="1" as="geometry">
            <mxPoint x="55" y="265" as="sourcePoint" />
            <Array as="points">
              <mxPoint x="55" y="265" />
              <mxPoint x="85" y="265" />
              <mxPoint x="85" y="283" />
            </Array>
            <mxPoint x="55" y="283" as="targetPoint" />
          </mxGeometry>
        </mxCell>
        <mxCell id="-RjXNWNZFDge65mw0WvV-23" value="Sentry&lt;br&gt;接入包" style="shape=note;whiteSpace=wrap;html=1;size=14;verticalAlign=top;align=center;spacingTop=-6;rounded=0;shadow=0;comic=0;labelBackgroundColor=none;strokeWidth=1;fontFamily=Verdana;fontSize=12" parent="1" vertex="1">
          <mxGeometry x="-783" y="100" width="110" height="35" as="geometry" />
        </mxCell>
        <mxCell id="-RjXNWNZFDge65mw0WvV-24" value="Sentry service" style="shape=umlLifeline;perimeter=lifelinePerimeter;whiteSpace=wrap;html=1;container=1;collapsible=0;recursiveResize=0;outlineConnect=0;rounded=1;shadow=0;comic=0;labelBackgroundColor=none;strokeWidth=1;fontFamily=Verdana;fontSize=12;align=center;" parent="1" vertex="1">
          <mxGeometry x="-258" y="160" width="100" height="580" as="geometry" />
        </mxCell>
        <mxCell id="VhnIH6Gxjaamr10zynHm-27" value="" style="html=1;points=[];perimeter=orthogonalPerimeter;outlineConnect=0;targetShapes=umlLifeline;portConstraint=eastwest;newEdgeStyle={&quot;edgeStyle&quot;:&quot;elbowEdgeStyle&quot;,&quot;elbow&quot;:&quot;vertical&quot;,&quot;curved&quot;:0,&quot;rounded&quot;:0};" parent="-RjXNWNZFDge65mw0WvV-24" vertex="1">
          <mxGeometry x="45" y="437" width="10" height="80" as="geometry" />
        </mxCell>
        <mxCell id="-RjXNWNZFDge65mw0WvV-32" value="返回__SENTRY__对象" style="html=1;verticalAlign=bottom;endArrow=open;dashed=1;endSize=8;edgeStyle=elbowEdgeStyle;elbow=vertical;curved=0;rounded=0;" parent="1" edge="1">
          <mxGeometry x="-0.015" relative="1" as="geometry">
            <mxPoint x="-733.5" y="334" as="sourcePoint" />
            <mxPoint x="-923" y="334" as="targetPoint" />
            <Array as="points">
              <mxPoint x="-873" y="334" />
              <mxPoint x="-783" y="334" />
            </Array>
            <mxPoint as="offset" />
          </mxGeometry>
        </mxCell>
        <mxCell id="-RjXNWNZFDge65mw0WvV-34" value="sentry系统" style="shape=umlLifeline;perimeter=lifelinePerimeter;whiteSpace=wrap;html=1;container=1;collapsible=0;recursiveResize=0;outlineConnect=0;rounded=1;shadow=0;comic=0;labelBackgroundColor=none;strokeWidth=1;fontFamily=Verdana;fontSize=12;align=center;" parent="1" vertex="1">
          <mxGeometry x="-73" y="160" width="100" height="580" as="geometry" />
        </mxCell>
        <mxCell id="VhnIH6Gxjaamr10zynHm-28" value="" style="html=1;points=[];perimeter=orthogonalPerimeter;outlineConnect=0;targetShapes=umlLifeline;portConstraint=eastwest;newEdgeStyle={&quot;edgeStyle&quot;:&quot;elbowEdgeStyle&quot;,&quot;elbow&quot;:&quot;vertical&quot;,&quot;curved&quot;:0,&quot;rounded&quot;:0};" parent="-RjXNWNZFDge65mw0WvV-34" vertex="1">
          <mxGeometry x="45" y="470" width="10" height="50" as="geometry" />
        </mxCell>
        <mxCell id="-RjXNWNZFDge65mw0WvV-37" value="Sentry可视化界面&lt;br&gt;（issues、BI、统计分析面板）" style="shape=note;whiteSpace=wrap;html=1;size=14;verticalAlign=top;align=center;spacingTop=-6;rounded=0;shadow=0;comic=0;labelBackgroundColor=none;strokeWidth=1;fontFamily=Verdana;fontSize=12" parent="1" vertex="1">
          <mxGeometry x="-83" y="90" width="120" height="45" as="geometry" />
        </mxCell>
        <mxCell id="-RjXNWNZFDge65mw0WvV-39" value="Sentry&lt;br&gt;服务端" style="shape=note;whiteSpace=wrap;html=1;size=14;verticalAlign=top;align=center;spacingTop=-6;rounded=0;shadow=0;comic=0;labelBackgroundColor=none;strokeWidth=1;fontFamily=Verdana;fontSize=12" parent="1" vertex="1">
          <mxGeometry x="-258" y="100" width="100" height="35" as="geometry" />
        </mxCell>
        <mxCell id="-RjXNWNZFDge65mw0WvV-42" value="（获取默认配置）&lt;br&gt;环境、集成、禁用url、忽略url 等" style="html=1;verticalAlign=bottom;endArrow=block;edgeStyle=elbowEdgeStyle;elbow=horizontal;curved=0;rounded=0;" parent="1" edge="1">
          <mxGeometry x="-0.0065" width="80" relative="1" as="geometry">
            <mxPoint x="-714" y="357" as="sourcePoint" />
            <mxPoint x="-393" y="357" as="targetPoint" />
            <Array as="points" />
            <mxPoint as="offset" />
          </mxGeometry>
        </mxCell>
        <mxCell id="-RjXNWNZFDge65mw0WvV-43" value="（返回配置信息）&lt;br&gt;类别、场景、基础配置等" style="html=1;verticalAlign=bottom;endArrow=open;dashed=1;endSize=8;edgeStyle=elbowEdgeStyle;elbow=vertical;curved=0;rounded=0;" parent="1" edge="1">
          <mxGeometry relative="1" as="geometry">
            <mxPoint x="-393" y="400" as="sourcePoint" />
            <mxPoint x="-713" y="400" as="targetPoint" />
            <Array as="points">
              <mxPoint x="-663" y="400" />
              <mxPoint x="-573" y="400" />
            </Array>
            <mxPoint as="offset" />
          </mxGeometry>
        </mxCell>
        <mxCell id="-RjXNWNZFDge65mw0WvV-48" value="（通过Sentry SDK）&lt;br&gt;初始化Sentry" style="html=1;verticalAlign=bottom;endArrow=block;edgeStyle=elbowEdgeStyle;elbow=horizontal;curved=0;rounded=0;" parent="1" edge="1">
          <mxGeometry x="-0.0035" width="80" relative="1" as="geometry">
            <mxPoint x="-913" y="265" as="sourcePoint" />
            <mxPoint x="-743" y="265" as="targetPoint" />
            <Array as="points" />
            <mxPoint as="offset" />
          </mxGeometry>
        </mxCell>
        <mxCell id="-RjXNWNZFDge65mw0WvV-66" value="" style="line;strokeWidth=1;fillColor=#dae8fc;align=left;verticalAlign=middle;spacingTop=-1;spacingLeft=3;spacingRight=3;rotatable=0;labelPosition=right;points=[];portConstraint=eastwest;strokeColor=#6c8ebf;" parent="1" vertex="1">
          <mxGeometry x="-1053" y="464" width="1130" height="8" as="geometry" />
        </mxCell>
        <mxCell id="-RjXNWNZFDge65mw0WvV-73" value="" style="line;strokeWidth=1;fillColor=#dae8fc;align=left;verticalAlign=middle;spacingTop=-1;spacingLeft=3;spacingRight=3;rotatable=0;labelPosition=right;points=[];portConstraint=eastwest;strokeColor=#6c8ebf;" parent="1" vertex="1">
          <mxGeometry x="-1053" y="695" width="1150" height="8" as="geometry" />
        </mxCell>
        <mxCell id="VhnIH6Gxjaamr10zynHm-19" value="（格式化错误 &amp;amp; 原生错误）&lt;br&gt;上报采集错误" style="html=1;verticalAlign=bottom;endArrow=block;edgeStyle=elbowEdgeStyle;elbow=vertical;curved=0;rounded=0;" parent="1" edge="1">
          <mxGeometry x="-0.0035" width="80" relative="1" as="geometry">
            <mxPoint x="-913" y="520" as="sourcePoint" />
            <mxPoint x="-743" y="520" as="targetPoint" />
            <Array as="points" />
            <mxPoint as="offset" />
          </mxGeometry>
        </mxCell>
        <mxCell id="VhnIH6Gxjaamr10zynHm-26" value="（格式化错误 &amp;amp; 原生错误）&lt;br&gt;上报处理后的错误" style="html=1;verticalAlign=bottom;endArrow=block;edgeStyle=elbowEdgeStyle;elbow=horizontal;curved=0;rounded=0;entryX=-0.2;entryY=0.16;entryDx=0;entryDy=0;entryPerimeter=0;" parent="1" target="VhnIH6Gxjaamr10zynHm-27" edge="1">
          <mxGeometry x="-0.0035" width="80" relative="1" as="geometry">
            <mxPoint x="-704" y="610" as="sourcePoint" />
            <mxPoint x="-262.94000000000005" y="611.3599999999999" as="targetPoint" />
            <Array as="points" />
            <mxPoint as="offset" />
          </mxGeometry>
        </mxCell>
        <mxCell id="VhnIH6Gxjaamr10zynHm-29" value="处理数据" style="html=1;verticalAlign=bottom;endArrow=block;edgeStyle=elbowEdgeStyle;elbow=horizontal;curved=0;rounded=0;" parent="1" edge="1">
          <mxGeometry x="-0.0035" width="80" relative="1" as="geometry">
            <mxPoint x="-200" y="640" as="sourcePoint" />
            <mxPoint x="-30" y="640" as="targetPoint" />
            <Array as="points" />
            <mxPoint as="offset" />
          </mxGeometry>
        </mxCell>
        <mxCell id="S3K-PdM1TAi_zhmvy3br-2" value="localStorage缓存配置&lt;br&gt;（不含函数）" style="html=1;verticalAlign=bottom;endArrow=open;dashed=1;endSize=8;edgeStyle=elbowEdgeStyle;elbow=vertical;curved=0;rounded=0;" parent="1" edge="1">
          <mxGeometry relative="1" as="geometry">
            <mxPoint x="-733" y="424" as="sourcePoint" />
            <mxPoint x="-923" y="424" as="targetPoint" />
            <Array as="points">
              <mxPoint x="-923" y="424" />
              <mxPoint x="-833" y="424" />
            </Array>
            <mxPoint as="offset" />
          </mxGeometry>
        </mxCell>
      </root>
    </mxGraphModel>
  </diagram>
</mxfile>
